#!OML:ASF H:\Martial Arts Walks\Project 1\Capture day 1\Session 1\male.ASF
:FULLY-SPECIFIED
:DEGREES
1547
root -3.70807 13.5392 40.1356 -1.10409 14.3386 2.26379
lowerback 16.8744 -2.31956 -7.19019
upperback 0.827263 -4.3287 1.17683
thorax -7.94173 -1.80221 6.34918
lowerneck 3.45701 -9.64631 -10.7609
upperneck 2.69939 -13.5285 12.344
head 1.81839 -6.83347 5.17896
rclavicle -2.19906e-015 2.08724e-015
rhumerus -38.309 -2.66295 -61.0158
rradius 26.1628
rwrist 8.75233
rhand -11.4063 -45.2168
rfingers 7.12502
rthumb 14.6291 -74.6808
lclavicle -2.19906e-015 2.08724e-015
lhumerus -19.9354 -11.4852 85.2943
lradius 32.4463
lwrist -13.8746
lhand -20.8672 25.8752
lfingers 7.12502
lthumb 5.50253 55.7837
rfemur -57.1387 -7.63675 8.71286
rtibia 59.5124
rfoot 4.82084 1.47015
rtoes -13.1681
lfemur -4.78497 -1.00821 -11.9553
ltibia 71.1873
lfoot -26.8933 23.5027
ltoes -19.6212
1548
root -3.66822 13.5558 39.9917 -1.40853 14.1018 2.38471
lowerback 16.8721 -2.38978 -7.36265
upperback 1.00873 -4.45342 1.08855
thorax -7.71653 -1.87523 6.36724
lowerneck 3.25 -9.48348 -10.5134
upperneck 2.913 -13.2917 12.1098
head 1.85453 -6.70549 5.06825
rclavicle -2.09469e-014 -2.08724e-014
rhumerus -38.7358 -3.25991 -60.7262
rradius 26.0327
rwrist 8.45876
rhand -12.0355 -45.5846
rfingers 7.12502
rthumb 14.0228 -75.0916
lclavicle -2.09469e-014 -2.08724e-014
lhumerus -19.455 -11.6833 85.113
lradius 32.4368
lwrist -13.6996
lhand -20.62 26.1787
lfingers 7.12502
lthumb 5.74127 56.0809
rfemur -56.4611 -6.877 8.08308
rtibia 58.0356
rfoot 5.92188 1.4396
rtoes -13.2046
lfemur -5.22165 -1.46554 -12.6673
ltibia 71.7492
lfoot -26.7702 23.5177
ltoes -19.9336
1549
root -3.6267 13.5784 39.844 -1.82954 13.8226 2.44925
lowerback 16.9094 -2.38975 -7.42042
upperback 1.15465 -4.46852 0.992206
thorax -7.57883 -1.89368 6.29356
lowerneck 3.76504 -9.26015 -10.5215
upperneck 2.71893 -13.0196 12.1812
head 1.68744 -6.58848 5.13877
rclavicle 8.82107e-016 5.46658e-015
rhumerus -39.5817 -4.11362 -60.2414
rradius 26.1188
rwrist 8.34582
rhand -12.4512 -46.1472
rfingers 7.12502
rthumb 13.6222 -75.6814
lclavicle 8.82107e-016 5.46658e-015
lhumerus -19.0715 -12.2577 85.0942
lradius 32.2879
lwrist -13.2044
lhand -20.9075 25.7258
lfingers 7.12502
lthumb 5.46367 55.6354
rfemur -55.6083 -5.9772 7.46658
rtibia 56.3953
rfoot 7.1937 1.20949
rtoes -12.8991
lfemur -5.50592 -1.93599 -13.3331
ltibia 72.1355
lfoot -26.7231 23.5528
ltoes -20.1087
1550
root -3.58402 13.6059 39.6845 -2.14448 13.4837 2.42304
lowerback 16.886 -2.43663 -7.47821
upperback 1.30919 -4.53588 0.94955
thorax -7.38556 -1.94018 6.28402
lowerneck 3.72992 -9.22195 -10.2074
upperneck 2.94425 -12.9565 11.7957
head 1.70637 -6.55182 4.97236
rclavicle 1.65426e-014 -1.37161e-014
rhumerus -40.1464 -4.65437 -59.9534
rradius 26.0417
rwrist 8.12205
rhand -12.8362 -46.6557
rfingers 7.12502
rthumb 13.2511 -76.2145
lclavicle 1.65426e-014 -1.37161e-014
lhumerus -18.5534 -12.389 84.9986
lradius 32.1425
lwrist -12.8581
lhand -20.9561 25.5724
lfingers 7.12502
lthumb 5.41673 55.4832
rfemur -54.8611 -4.91108 6.91798
rtibia 54.5324
rfoot 8.62531 0.801066
rtoes -11.6279
lfemur -5.76896 -2.33989 -13.9147
ltibia 72.3417
lfoot -26.5419 23.9816
ltoes -21.0679
1551
root -3.53494 13.6423 39.5251 -2.45182 13.1907 2.70594
lowerback 16.8077 -2.48894 -7.81447
upperback 1.52828 -4.66171 0.812589
thorax -7.06877 -2.01673 6.33334
lowerneck 4.00158 -8.90541 -10.1445
upperneck 2.82616 -12.5435 11.8992
head 1.58347 -6.35514 5.0313
rclavicle -1.10512e-014 2.15681e-014
rhumerus -40.7368 -5.30354 -59.6812
rradius 26.1351
rwrist 8.03588
rhand -13.0936 -47.2723
rfingers 7.12502
rthumb 13.003 -76.8471
lclavicle -1.10512e-014 2.15681e-014
lhumerus -17.9578 -12.5427 84.8664
lradius 31.9174
lwrist -12.7987
lhand -21.0694 25.5166
lfingers 7.12502
lthumb 5.30729 55.4301
rfemur -53.935 -3.90652 6.0035
rtibia 52.4894
rfoot 10.1241 0.413605
rtoes -10.3563
lfemur -5.94324 -2.86655 -14.9331
ltibia 72.4112
lfoot -26.5051 24.2913
ltoes -21.5427
1552
root -3.48619 13.6858 39.3526 -2.67781 12.7978 2.75913
lowerback 16.6959 -2.51003 -7.92353
upperback 1.66557 -4.69759 0.762951
thorax -6.84753 -2.04848 6.33234
lowerneck 4.10386 -8.75727 -9.97549
upperneck 2.97154 -12.3443 11.592
head 1.55757 -6.25668 4.92494
rclavicle 5.39017e-014 -3.47873e-015
rhumerus -41.4596 -5.80778 -59.3906
rradius 26.288
rwrist 7.90624
rhand -13.3308 -47.8138
rfingers 7.12502
rthumb 12.7743 -77.4029
lclavicle 5.39017e-014 -3.47873e-015
lhumerus -17.3645 -12.6197 84.8491
lradius 31.6172
lwrist -13.0055
lhand -20.9496 25.6342
lfingers 7.12502
lthumb 5.42303 55.5448
rfemur -53.0441 -2.60433 5.24512
rtibia 50.1798
rfoot 11.8511 -0.237649
rtoes -8.67937
lfemur -6.21507 -3.30805 -15.6856
ltibia 72.3831
lfoot -26.156 24.6678
ltoes -21.6723
1553
root -3.43378 13.7226 39.1705 -2.82499 12.3719 2.90916
lowerback 16.5991 -2.56122 -8.13756
upperback 1.83879 -4.7919 0.699662
thorax -6.57869 -2.10997 6.38617
lowerneck 3.98688 -8.47151 -9.85257
upperneck 3.14116 -11.9529 11.4443
head 1.56681 -6.05588 4.86911
rclavicle 1.39646e-014 -4.52235e-015
rhumerus -41.9858 -6.06796 -59.3042
rradius 26.492
rwrist 7.48886
rhand -13.7273 -48.3538
rfingers 7.12502
rthumb 12.392 -77.9665
lclavicle 1.39646e-014 -4.52235e-015
lhumerus -16.6198 -12.4542 84.7401
lradius 31.3077
lwrist -13.3324
lhand -20.9573 25.6381
lfingers 7.12502
lthumb 5.41559 55.5489
rfemur -52.1754 -1.19993 4.29411
rtibia 47.7232
rfoot 13.7681 -1.02728
rtoes -5.90359
lfemur -6.54007 -3.71756 -16.5603
ltibia 72.2834
lfoot -26.0643 25.043
ltoes -22.2375
1554
root -3.38219 13.7639 38.9815 -2.9594 11.7967 3.04362
lowerback 16.5981 -2.5954 -8.44864
upperback 2.01921 -4.88598 0.669565
thorax -6.34308 -2.16759 6.53729
lowerneck 3.66773 -8.10085 -9.73723
upperneck 3.35215 -11.4363 11.3113
head 1.60991 -5.78662 4.8128
rclavicle 1.72477e-014 -1.2921e-015
rhumerus -42.4042 -6.27533 -59.2874
rradius 26.851
rwrist 7.19166
rhand -13.7119 -48.9691
rfingers 7.12502
rthumb 12.4069 -78.5809
lclavicle 1.72477e-014 -1.2921e-015
lhumerus -15.822 -12.0936 84.5819
lradius 31.035
lwrist -13.637
lhand -20.6828 26.1334
lfingers 7.12502
lthumb 5.68062 56.0373
rfemur -51.3171 0.527179 3.28765
rtibia 45.0369
rfoot 16.0168 -1.88004
rtoes -3.92479
lfemur -6.83552 -3.99657 -17.3894
ltibia 72.0939
lfoot -25.9 25.4956
ltoes -22.4852
